<?xml version="1.0" standalone="no"?>
<!DOCTYPE svg PUBLIC "-//W3C//DTD SVG 1.1//EN" "http://www.w3.org/Graphics/SVG/1.1/DTD/svg11.dtd">
<svg xmlns="http://www.w3.org/2000/svg">
<metadata>Copyright (C) 2017 by original authors @ fontello.com</metadata>
<defs>
<font id="fontello" horiz-adv-x="1000" >
<font-face font-family="fontello" font-weight="400" font-stretch="normal" units-per-em="1000" ascent="850" descent="-150" />
<missing-glyph horiz-adv-x="1000" />
<glyph glyph-name="uncheck" unicode="&#xe800;" d="M875 50l-750 0c-34 0-64 12-88 37-25 24-37 54-37 88l0 750c0 35 12 64 37 88 24 24 54 36 88 36l750 0c35 0 64-12 88-36 25-24 37-53 37-88l0-750c0-34-12-64-37-88-24-25-53-37-88-37z m0 813c0 17-6 31-18 44-12 12-27 18-44 18l-625 0c-18 0-33-6-45-18-12-13-18-27-18-44l0-625c0-18 6-33 18-45 12-12 27-18 45-18l625 0c17 0 32 6 44 18 12 12 18 27 18 45z" horiz-adv-x="1000" />

<glyph glyph-name="check" unicode="&#xe801;" d="M875 50h-750q-52 0-88 37t-37 88v750q0 52 37 88t88 36h750q26 0 52-10l-114-114h-625q-26 0-44-18t-19-44v-625q0-27 18-45t45-18h625q25 0 43 18t19 45v375l125 125v-563q0-52-37-88t-88-37z m-330 331q-19-18-46-17-28-1-47 18l-183 183q-19 19-19 46t19 46 46 18 45-18l141-141 477 480q22-33 22-71v-66q-8-30-19-41z" horiz-adv-x="1000" />

<glyph glyph-name="times" unicode="&#xe802;" d="M685 550l296-297q19-19 19-46t-19-45l-92-92q-19-20-46-20t-46 20l-297 296-297-296q-18-20-46-20t-46 20l-91 92q-20 18-20 45t20 46l295 297-295 296q-20 20-20 47t20 46l91 92q19 18 46 18t46-18l297-297 297 297q18 18 46 18t46-18l92-92q19-20 19-46t-19-47z" horiz-adv-x="1000" />

<glyph glyph-name="calcplus" unicode="&#xe803;" d="M875 50h-750q-52 0-88 37t-37 88v750q0 52 37 89t88 36h750q52 0 88-36t37-89v-750q0-52-37-88t-88-37z m-125 531q0 13-9 22t-22 10h-156v156q0 13-10 22t-22 9h-62q-13 0-22-9t-9-22v-156h-157q-12 0-22-10t-9-22v-62q0-13 9-22t22-9h157v-157q0-12 9-21t22-10h62q13 0 22 10t10 21v157h156q12 0 22 9t9 22v62z" horiz-adv-x="1000" />

<glyph glyph-name="handdrag" unicode="&#xe804;" d="M934 780q-31-78-42-169-16-123-16-186v-31q0-44-13-95t-31-94-37-79-31-55l-13-21h-375q-6 5-14 14t-30 34-38 47-30 49-13 44q0 37-42 119t-86 145l-42 64q-18 18-18 45t18 46 45 19 44-19q3-3 7-10t16-24 24-33 27-35 28-34 23-23 19-10q-2 31 0 31l-63 396q-4 25 10 46t38 26 42-11 23-42l39-231q36-111 36-28v313q0 25 18 44t44 18 44-18 19-44v-375q6 2 14 10t10 21l49 290q4 26 23 42t43 11 37-26 10-46q-3-16-8-41t-14-88-8-111q0-31 8-62t15-47l8-16q4 10 12 22l62 251q9 24 31 35t45 2 33-32 0-48z" horiz-adv-x="1000" />

<glyph glyph-name="mapmarker" unicode="&#xe805;" d="M791 387l-266-337-265 337q-71 74-97 174t0 201 97 174 169 102 193 0 169-102 97-174 0-201-97-174z m-265 537q-104 0-177-73t-74-177 74-176 177-73 177 73 73 176-73 177-177 73z" horiz-adv-x="1000" />

<glyph glyph-name="directions" unicode="&#xe806;" d="M688 50l-375 125-313-125v142q33 14 61 35l-45 45q-6-5-16-10v663l313 125 375-125 312 125v-875z m-625 281l62-31q56 72 63 125h-64q-3-12-13-30t-28-38-20-26z m125 282q-56-72-63-125h64q1 12 12 30t29 38 20 25z m187 125q-68-9-123-51l45-46q36 25 78 33v64z m63 0v-64q43-8 78-33l45 46q-55 42-123 51z m430 0q6 6 6 14t-6 14l-28 29q-6 6-15 6t-14-6l-92-92-93 92q-6 6-14 6t-15-6l-29-29q-5-6-5-14t5-14l93-94-93-93q-5-6-5-14t5-14l29-29q6-6 14-6t15 6l93 92 92-92q5-6 14-6t15 6l28 29q6 6 6 14t-6 14l-93 93z" horiz-adv-x="1000" />

<glyph glyph-name="transform" unicode="&#xe807;" d="M969 238q12 0 22-10t9-22v-125q0-12-9-21t-22-10h-125q-13 0-22 10t-9 21v32h-188v-32q0-12-9-21t-22-10h-125q-13 0-22 10t-9 21v32h-188v-32q0-12-9-21t-22-10h-125q-13 0-22 10t-9 21v125q0 13 9 22t22 10h31v187h-31q-13 0-22 10t-9 21v125q0 13 9 22t22 10h31v187h-31q-13 0-22 10t-9 21v125q0 13 9 22t22 10h125q12 0 22-10t9-22v-31h188v31q0 13 9 22t22 10h125q12 0 22-10t9-22v-31h188v31q0 13 9 22t22 10h125q12 0 22-10t9-22v-125q0-12-9-21t-22-10h-31v-187h31q12 0 22-10t9-22v-125q0-12-9-21t-22-10h-31v-187h31z m-469-110q0-6 4-11t12-4h31q7 0 11 4t5 11v32q0 6-5 11t-11 4h-31q-7 0-12-4t-4-11v-32z m-375 0q0-6 4-11t12-4h31q7 0 11 4t5 11v32q0 6-5 11t-11 4h-31q-7 0-12-4t-4-11v-32z m0 375q0-6 4-11t12-4h31q7 0 11 4t5 11v32q0 6-5 11t-11 4h-31q-7 0-12-4t-4-11v-32z m63 407q0 6-5 11t-11 4h-31q-7 0-12-4t-4-11v-32q0-6 4-11t12-4h31q7 0 11 4t5 11v32z m375 0q0 6-5 11t-11 4h-31q-7 0-12-4t-4-11v-32q0-6 4-11t12-4h31q7 0 11 4t5 11v32z m250-79v32h-188v-32q0-12-9-21t-22-10h-125q-13 0-22 10t-9 21v32h-188v-32q0-12-9-21t-22-10h-31v-187h31q12 0 22-10t9-22v-125q0-12-9-21t-22-10h-31v-187h31q12 0 22-10t9-22v-31h188v31q0 13 9 22t22 10h125q12 0 22-10t9-22v-31h188v31q0 13 9 22t22 10h31v187h-31q-13 0-22 10t-9 21v125q0 13 9 22t22 10h31v187h-31q-13 0-22 10t-9 21z m125 79q0 6-5 11t-11 4h-31q-7 0-12-4t-4-11v-32q0-6 4-11t12-4h31q7 0 11 4t5 11v32z m0-375q0 6-5 11t-11 4h-31q-7 0-12-4t-4-11v-32q0-6 4-11t12-4h31q7 0 11 4t5 11v32z m-16-360h-31q-7 0-12-4t-4-11v-32q0-6 4-11t12-4h31q7 0 11 4t5 11v32q0 6-5 11t-11 4z m-375 313h-31q-7 0-12 4t-4 11v32q0 6 4 11t12 4h31q7 0 11-4t5-11v-32q0-6-5-11t-11-4z" horiz-adv-x="1000" />

<glyph glyph-name="calcminus" unicode="&#xe808;" d="M875 50h-750q-52 0-88 37t-37 88v750q0 52 37 89t88 36h750q52 0 88-36t37-89v-750q0-52-37-88t-88-37z m-125 531q0 13-9 22t-22 10h-438q-12 0-22-10t-9-22v-62q0-13 9-22t22-9h438q12 0 22 9t9 22v62z" horiz-adv-x="1000" />

<glyph glyph-name="cog" unicode="&#xe809;" d="M871 610q5-30 5-60t-5-59l126-121q5-5 4-16t-9-21l-67-104q-7-11-17-17t-15-6l-162 48q-44-34-95-53l-38-135q-2-6-13-11t-24-5h-134q-14 0-24 5t-12 11l-35 139q-43 18-85 50l-161-49q-6 0-16 6t-17 17l-67 104q-7 11-8 21t3 16l126 121q-5 30-5 59t5 60l-126 121q-5 5-3 15t8 21l67 105q7 10 17 17t16 5l161-49q44 35 95 55l38 135q2 5 13 10t24 5h134q14 0 25-5t11-10l36-139q43-19 84-51l162 49q6 1 16-5t16-17l67-105q7-11 9-21t-4-15z m-370 128q-78 0-133-55t-54-133 54-133 133-54 133 54 55 133-55 133-133 55z" horiz-adv-x="1000" />

<glyph glyph-name="save" unicode="&#xe80a;" d="M938 50h-63v438q0 25-19 44t-43 18h-625q-27 0-45-18t-18-44v-438h-62q-26 0-44 19t-19 44v875q0 25 19 44t44 18h812l125-125v-812q0-26-19-44t-43-19z m-188 938h-625v-250q0-27 18-45t45-18h500q25 0 43 18t19 45v250z m-250-63h125v-187h-125v187z m-281-437h562q13 0 22-10t10-22-10-21-22-10h-562q-13 0-22 10t-9 21 9 22 22 10z m0-188h562q13 0 22-9t10-22-10-22-22-9h-562q-13 0-22 9t-9 22 9 22 22 9z m0-187h562q13 0 22-10t10-22-10-21-22-10h-562q-13 0-22 10t-9 21 9 22 22 10z" horiz-adv-x="1000" />

<glyph glyph-name="pencil" unicode="&#xe80b;" d="M762 123l-168 52 281 281 52-167q-60-18-104-62t-61-104z m-731 583q-31 33-31 79t32 78l156 155q31 32 77 32t79-31l500-500-313-313z m915-481l54-175-175 54q16 42 48 74t73 47z" horiz-adv-x="1000" />

<glyph glyph-name="checkmark" unicode="&#xe80c;" d="M982 733l-604-604q-18-17-52-16-31 1-48 16l-260 261q-18 18-18 43t18 43l87 87q17 18 43 18t42-18l138-138 482 481q17 17 43 17t43-17l86-86q18-19 18-44t-18-43z" horiz-adv-x="1000" />

<glyph glyph-name="plus" unicode="&#xe80d;" d="M938 425h-313v-312q0-27-18-45t-44-18h-125q-27 0-45 19t-18 44v312h-312q-27 0-45 19t-18 44v125q0 26 18 44t45 18h312v313q0 26 18 44t45 18h125q26 0 44-18t18-44v-313h313q26 0 44-18t18-44v-125q0-26-18-44t-44-19z" horiz-adv-x="1000" />

<glyph glyph-name="pin" unicode="&#xe80e;" d="M875 268l125-218-219 125-1 6-164 163-148-147q-41-41-93 9v175l-252 262-13-12q-18-19-45-19t-46 19-19 46 19 46l308 308q20 18 47 18t45-18 20-46-20-46l-13-13 263-252 175-1q51-50 9-92l-148-147 164-164z" horiz-adv-x="1000" />

<glyph glyph-name="loading" unicode="&#xe80f;" d="M933 300q-20-33-57-43t-71 9-44 57 10 71q59 104 66 221t-39 224-134 183q46-16 86-39 88-51 148-131t85-172 13-192-63-188z m-183-182q-88-51-188-63t-191 12-172 85-132 148q-19 33-9 71t43 57 71 9 58-43q44-78 113-135t147-84 167-31 169 28q-36-32-76-54z m-250 745q-120 0-225-53t-174-146-92-208q-9 48-9 94 0 102 40 195t106 159 160 107 194 39q39 0 66-27t28-67-28-66-66-27z" horiz-adv-x="1000" />

<glyph glyph-name="target" unicode="&#xe810;" d="M500 50q-102 0-194 40t-160 106-106 160-40 194 40 195 106 159 160 107 194 39 194-39 160-107 106-159 40-195-40-194-106-160-160-106-194-40z m0 875q-102 0-188-50t-137-137-50-188 50-188 137-136 188-51 188 51 137 136 50 188-50 188-137 137-188 50z m0-687q-85 0-157 42t-113 114-42 156 42 157 113 114 157 42 157-42 114-114 42-157-42-156-114-114-157-42z m0 500q-78 0-133-55t-54-133 54-133 133-54 133 54 55 133-56 133-132 55z m0-313q-52 0-88 37t-37 88 37 89 88 36 88-36 37-89-37-88-88-37z" horiz-adv-x="1000" />

<glyph glyph-name="walking" unicode="&#xf183;" d="M571 457v-232q0-22-15-38t-38-16-38 16-16 38v196h-35v-509q0-25-19-44t-44-18-44 18-18 44v259h-36v-259q0-25-19-44t-44-18-44 18-18 44v509h-36v-196q0-22-15-38t-38-16-38 16-16 38v232q0 45 31 76t76 31h357q45 0 76-31t31-76z m-160 250q0-52-37-88t-88-37-89 37-36 88 36 89 89 36 88-36 37-89z" horiz-adv-x="571.4" />

<glyph glyph-name="driving" unicode="&#xf1b9;" d="M268 243q0 37-26 63t-63 26-63-26-27-63 27-63 63-26 63 26 26 63z m20 178h567l-50 200q-1 4-8 9t-11 6h-429q-5 0-12-6t-7-9z m766-178q0 37-27 63t-63 26-63-26-26-63 26-63 63-26 63 26 27 63z m89 53v-214q0-8-5-13t-13-5h-54v-71q0-45-31-76t-76-31-76 31-31 76v71h-571v-71q0-45-31-76t-76-31-76 31-32 76v71h-53q-8 0-13 5t-5 13v214q0 52 37 89t88 36h16l58 234q13 53 58 88t100 36h429q54 0 100-36t58-88l58-234h16q52 0 88-36t37-89z" horiz-adv-x="1142.9" />

<glyph glyph-name="bicycling" unicode="&#xf206;" d="M425 207h-175q-22 0-32 20t4 37l105 140q-37 17-77 17-74 0-126-52t-53-126 53-126 126-53q64 0 113 41t62 102z m-104 72h104q-10 47-42 82z m268 0l161 214h-268l-55-74q59-57 70-140h92z m625-36q0 74-52 126t-126 52q-34 0-68-13l97-145q9-13 6-27t-15-23q-9-6-20-6-20 0-30 16l-97 145q-52-53-52-125 0-74 53-126t126-53 126 53 52 126z m72 0q0-103-74-177t-176-73-177 73-73 177q0 54 22 102t61 84l-36 54-197-261q-10-15-29-15h-110q-13-91-83-153t-164-61q-103 0-177 73t-73 177 73 177 177 73q64 0 120-31l76 102h-125q-14 0-25 11t-10 25 10 25 25 11h215v-72h243l-48 72h-124q-14 0-25 10t-11 25 11 26 25 10h143q18 0 30-15l149-224q50 25 107 25 103 0 176-73t74-177z" horiz-adv-x="1285.7" />

<glyph glyph-name="transit" unicode="&#xf238;" d="M607 850q103 0 177-52t73-127v-500q0-72-70-123t-170-55l119-112q8-9 4-20t-17-11h-589q-12 0-17 11t5 20l119 112q-101 3-171 55t-70 123v500q0 75 73 127t177 52h357z m-178-750q44 0 76 31t31 76-31 76-76 31-76-31-32-76 32-76 76-31z m321 321v286h-643v-286h643z" horiz-adv-x="857.1" />
</font>
</defs>
</svg>
